<svg width="177" height="54" viewBox="0 0 177 54" fill="none" xmlns="http://www.w3.org/2000/svg">
<path d="M23.1017 7.49072L11.4146 24.7877L14.1351 29.4625L23.1017 15.438L32.2176 29.4625L35.0225 24.7877L23.1017 7.49072Z" fill="url(#paint0_linear)"/>
<path d="M23.1016 15.438V7.49072L35.0224 24.5539L32.2175 29.4625L23.1016 15.438Z" fill="url(#paint1_linear)"/>
<path fill-rule="evenodd" clip-rule="evenodd" d="M24.0366 43.4606C24.2088 43.4653 24.3816 43.4676 24.555 43.4676C34.8824 43.4676 43.2544 35.0956 43.2544 24.7682C43.2544 21.1757 42.2413 17.8199 40.4853 14.9707L24.0366 43.4606Z" fill="url(#paint2_linear)"/>
<path fill-rule="evenodd" clip-rule="evenodd" d="M22.2178 43.4606C22.0456 43.4653 21.8728 43.4676 21.6994 43.4676C11.372 43.4676 3.00003 35.0956 3.00003 24.7682C3.00003 21.1757 4.0131 17.8199 5.76914 14.9707L22.2178 43.4606Z" fill="url(#paint3_linear)"/>
<path d="M12.3495 14.9707L12.4685 15.7867L13.2845 15.9057L12.4685 16.0247L12.3495 16.8406L12.2305 16.0247L11.4146 15.9057L12.2305 15.7867L12.3495 14.9707Z" fill="#44CEE3"/>
<path d="M14.2039 11.0052L14.1077 11.8241L14.865 12.1503L14.0461 12.054L13.7199 12.8114L13.8162 11.9924L13.0588 11.6663L13.8778 11.7625L14.2039 11.0052Z" fill="#B6E1EB"/>
<path d="M16.5571 12.3994L16.962 12.1657L17.1957 12.5705L16.7909 12.8043L16.5571 12.3994Z" fill="#7EE1F0"/>
<path d="M15.0688 15.5864L15.4737 15.3527L15.7074 15.7575L15.3026 15.9913L15.0688 15.5864Z" fill="#44CEE3"/>
<path d="M10.9473 17.9194L11.1967 17.7754L11.3407 18.0248L11.0913 18.1688L10.9473 17.9194Z" fill="#44CEE3"/>
<path d="M14.3916 17.7651L14.69 18.0635L14.3916 18.3619L14.0932 18.0635L14.3916 17.7651Z" fill="#AFE7F0"/>
<path d="M9.07715 15.438H9.54463V15.9055H9.07715V15.438Z" fill="#D6F1F7"/>
<path d="M10.9473 20.1128H11.4148V20.5803H10.9473V20.1128Z" fill="#2CBADA"/>
<path d="M34.7202 15.0105L34.8405 16.0342L33.8938 16.4419L34.9175 16.3216L35.3252 17.2683L35.2049 16.2446L36.1516 15.8369L35.1279 15.9572L34.7202 15.0105Z" fill="#44CEE3"/>
<path d="M30.2852 12.8672L29.8803 12.6334L29.6466 13.0383L30.0514 13.272L30.2852 12.8672Z" fill="#92EAF8"/>
<path d="M36.9385 18.8384L36.736 18.7215L36.6192 18.9239L36.8216 19.0408L36.9385 18.8384Z" fill="#44CEE3"/>
<path d="M32.8452 13.2446L32.5958 13.1006L32.4518 13.35L32.7012 13.494L32.8452 13.2446Z" fill="#44CEE3"/>
<path d="M32.75 18.6162L32.4043 18.9619L32.75 19.3075L33.0957 18.9619L32.75 18.6162Z" fill="#2CBADA"/>
<path d="M32.5327 15.104L32.1173 14.8896L31.9029 15.3051L32.3183 15.5194L32.5327 15.104Z" fill="#ABE2EE"/>
<path d="M35.7241 20.5806H35.2566V21.0481H35.7241V20.5806Z" fill="#DFE6FD"/>
<rect x="3" y="6" width="41" height="38.7636" fill="black" fill-opacity="0.2"/>
<path d="M53.7 15H55.18V27.76H62V29H53.7V15ZM75.3061 29.2C74.1328 29.2 73.1061 28.9067 72.2261 28.32C71.3461 27.7333 70.6661 26.9 70.1861 25.82C69.7194 24.74 69.4861 23.4667 69.4861 22C69.4861 20.5333 69.7194 19.26 70.1861 18.18C70.6661 17.1 71.3461 16.2667 72.2261 15.68C73.1061 15.0933 74.1328 14.8 75.3061 14.8C76.4794 14.8 77.4994 15.0933 78.3661 15.68C79.2461 16.2667 79.9194 17.1 80.3861 18.18C80.8661 19.26 81.1061 20.5333 81.1061 22C81.1061 23.4667 80.8661 24.74 80.3861 25.82C79.9194 26.9 79.2461 27.7333 78.3661 28.32C77.4994 28.9067 76.4794 29.2 75.3061 29.2ZM75.3061 27.98C76.1861 27.98 76.9528 27.74 77.6061 27.26C78.2594 26.7667 78.7594 26.0733 79.1061 25.18C79.4528 24.2733 79.6261 23.2133 79.6261 22C79.6261 20.7867 79.4528 19.7333 79.1061 18.84C78.7594 17.9333 78.2594 17.24 77.6061 16.76C76.9528 16.2667 76.1861 16.02 75.3061 16.02C74.4261 16.02 73.6594 16.2667 73.0061 16.76C72.3528 17.24 71.8461 17.9333 71.4861 18.84C71.1394 19.7333 70.9661 20.7867 70.9661 22C70.9661 23.2133 71.1394 24.2733 71.4861 25.18C71.8461 26.0733 72.3528 26.7667 73.0061 27.26C73.6594 27.74 74.4261 27.98 75.3061 27.98ZM93.5916 16.2H89.2116V15H99.4116V16.2H95.0716V29H93.5916V16.2ZM113.349 29.2C112.176 29.2 111.149 28.9067 110.269 28.32C109.389 27.7333 108.709 26.9 108.229 25.82C107.762 24.74 107.529 23.4667 107.529 22C107.529 20.5333 107.762 19.26 108.229 18.18C108.709 17.1 109.389 16.2667 110.269 15.68C111.149 15.0933 112.176 14.8 113.349 14.8C114.522 14.8 115.542 15.0933 116.409 15.68C117.289 16.2667 117.962 17.1 118.429 18.18C118.909 19.26 119.149 20.5333 119.149 22C119.149 23.4667 118.909 24.74 118.429 25.82C117.962 26.9 117.289 27.7333 116.409 28.32C115.542 28.9067 114.522 29.2 113.349 29.2ZM113.349 27.98C114.229 27.98 114.996 27.74 115.649 27.26C116.302 26.7667 116.802 26.0733 117.149 25.18C117.496 24.2733 117.669 23.2133 117.669 22C117.669 20.7867 117.496 19.7333 117.149 18.84C116.802 17.9333 116.302 17.24 115.649 16.76C114.996 16.2667 114.229 16.02 113.349 16.02C112.469 16.02 111.702 16.2667 111.049 16.76C110.396 17.24 109.889 17.9333 109.529 18.84C109.182 19.7333 109.009 20.7867 109.009 22C109.009 23.2133 109.182 24.2733 109.529 25.18C109.889 26.0733 110.396 26.7667 111.049 27.26C111.702 27.74 112.469 27.98 113.349 27.98ZM132.075 29.2C131.208 29.2 130.388 29.0133 129.615 28.64C128.855 28.2667 128.241 27.76 127.775 27.12L128.695 26.2C129.108 26.72 129.628 27.1467 130.255 27.48C130.895 27.8 131.521 27.96 132.135 27.96C132.988 27.96 133.675 27.74 134.195 27.3C134.728 26.86 134.995 26.28 134.995 25.56C134.995 24.88 134.781 24.3 134.355 23.82C133.928 23.34 133.155 22.8267 132.035 22.28C131.061 21.8 130.295 21.36 129.735 20.96C129.188 20.5467 128.795 20.1267 128.555 19.7C128.328 19.2733 128.215 18.7867 128.215 18.24C128.215 17.1867 128.581 16.3533 129.315 15.74C130.061 15.1133 131.055 14.8 132.295 14.8C133.148 14.8 133.935 14.9933 134.655 15.38C135.375 15.7667 135.908 16.28 136.255 16.92L135.255 17.62C134.948 17.14 134.528 16.76 133.995 16.48C133.461 16.1867 132.895 16.04 132.295 16.04C131.508 16.04 130.875 16.24 130.395 16.64C129.928 17.0267 129.695 17.5467 129.695 18.2C129.695 18.5867 129.781 18.92 129.955 19.2C130.128 19.4667 130.441 19.7533 130.895 20.06C131.361 20.3533 132.068 20.74 133.015 21.22C134.255 21.8333 135.141 22.4667 135.675 23.12C136.208 23.7733 136.475 24.5467 136.475 25.44C136.475 26.1867 136.288 26.8467 135.915 27.42C135.555 27.9933 135.041 28.4333 134.375 28.74C133.708 29.0467 132.941 29.2 132.075 29.2Z" fill="white"/>
<path d="M53.576 35.4H54.592V40.184H57.248V41H53.576V35.4ZM61.2383 41.08C60.7316 41.08 60.2916 40.9653 59.9183 40.736C59.545 40.5013 59.2596 40.168 59.0623 39.736C58.865 39.304 58.7663 38.792 58.7663 38.2C58.7663 37.608 58.865 37.096 59.0623 36.664C59.2596 36.232 59.545 35.9013 59.9183 35.672C60.2916 35.4373 60.7316 35.32 61.2383 35.32C61.745 35.32 62.1823 35.4373 62.5503 35.672C62.9236 35.9013 63.209 36.232 63.4063 36.664C63.6036 37.096 63.7023 37.608 63.7023 38.2C63.7023 38.792 63.6036 39.304 63.4063 39.736C63.209 40.168 62.9236 40.5013 62.5503 40.736C62.1823 40.9653 61.745 41.08 61.2383 41.08ZM61.2383 40.272C61.6863 40.272 62.0383 40.088 62.2943 39.72C62.5556 39.352 62.6863 38.8453 62.6863 38.2C62.6863 37.5547 62.5556 37.048 62.2943 36.68C62.0383 36.3067 61.6863 36.12 61.2383 36.12C60.785 36.12 60.4276 36.3067 60.1663 36.68C59.9103 37.048 59.7823 37.5547 59.7823 38.2C59.7823 38.8453 59.9103 39.352 60.1663 39.72C60.4276 40.088 60.785 40.272 61.2383 40.272ZM68.0436 41.08C67.345 41.08 66.817 40.8907 66.4596 40.512C66.1023 40.128 65.9236 39.5627 65.9236 38.816V35.4H66.9396V38.8C66.9396 39.776 67.3076 40.264 68.0436 40.264C68.4063 40.264 68.681 40.1413 68.8676 39.896C69.0543 39.6507 69.1476 39.2853 69.1476 38.8V35.4H70.1556V38.816C70.1556 39.5627 69.977 40.128 69.6196 40.512C69.2623 40.8907 68.737 41.08 68.0436 41.08ZM77.0927 35.4V41H76.1487L73.7087 37.072V41H72.7007V35.4H73.7007L76.0847 39.264V35.4H77.0927ZM83.8636 38.008V41H83.1196L83.0076 40.672C82.6556 40.944 82.2236 41.08 81.7116 41.08C81.2262 41.08 80.8076 40.9653 80.4556 40.736C80.1036 40.5067 79.8342 40.176 79.6476 39.744C79.4609 39.312 79.3676 38.7973 79.3676 38.2C79.3676 37.6187 79.4716 37.112 79.6796 36.68C79.8876 36.2427 80.1809 35.9067 80.5596 35.672C80.9436 35.4373 81.3916 35.32 81.9036 35.32C82.3462 35.32 82.7329 35.4027 83.0636 35.568C83.3942 35.7333 83.6369 35.9653 83.7916 36.264L83.2236 36.784C83.0902 36.5707 82.9116 36.4107 82.6876 36.304C82.4636 36.192 82.2076 36.136 81.9196 36.136C81.4289 36.136 81.0502 36.3147 80.7836 36.672C80.5169 37.0293 80.3836 37.5387 80.3836 38.2C80.3836 38.8827 80.5089 39.408 80.7596 39.776C81.0102 40.1387 81.3676 40.32 81.8316 40.32C82.2422 40.32 82.5862 40.2213 82.8636 40.024V38.728H81.6156V38.008H83.8636ZM86.3231 35.4H89.9151V36.216H87.3311V37.648H89.6431V38.464H87.3311V40.184H89.9151V41H86.3231V35.4ZM95.6249 35.4H97.3289C97.9743 35.4 98.4623 35.5173 98.7929 35.752C99.1289 35.9813 99.2969 36.3227 99.2969 36.776C99.2969 37.0587 99.2329 37.2987 99.1049 37.496C98.9769 37.688 98.7769 37.8507 98.5049 37.984V38C98.8569 38.1173 99.1129 38.2853 99.2729 38.504C99.4329 38.7227 99.5129 39.0107 99.5129 39.368C99.5129 39.9013 99.3556 40.3067 99.0409 40.584C98.7263 40.8613 98.2676 41 97.6649 41H95.6249V35.4ZM97.4569 37.672C97.7183 37.672 97.9209 37.6027 98.0649 37.464C98.2089 37.3253 98.2809 37.1307 98.2809 36.88C98.2809 36.6453 98.2009 36.472 98.0409 36.36C97.8809 36.2427 97.6329 36.184 97.2969 36.184H96.6329V37.672H97.4569ZM97.6169 40.208C97.9049 40.208 98.1263 40.1307 98.2809 39.976C98.4356 39.8213 98.5129 39.6 98.5129 39.312C98.5129 39.0027 98.4169 38.776 98.2249 38.632C98.0383 38.488 97.7396 38.416 97.3289 38.416H96.6329V40.208H97.6169ZM104.641 39.976H102.633L102.321 41H101.257L103.185 35.4H104.089L106.017 41H104.953L104.641 39.976ZM104.393 39.168L103.641 36.72L102.881 39.168H104.393ZM108.161 35.4H110.049C110.673 35.4 111.14 35.528 111.449 35.784C111.759 36.0347 111.913 36.4187 111.913 36.936C111.913 37.304 111.831 37.6187 111.665 37.88C111.5 38.1413 111.265 38.3253 110.961 38.432V38.448C111.063 38.5173 111.143 38.5893 111.201 38.664C111.265 38.7387 111.319 38.824 111.361 38.92L112.185 41H111.113L110.449 39.256C110.375 39.0693 110.281 38.944 110.169 38.88C110.057 38.8107 109.873 38.776 109.617 38.776H109.169V41H108.161V35.4ZM109.953 37.968C110.273 37.968 110.516 37.8907 110.681 37.736C110.852 37.5813 110.937 37.352 110.937 37.048C110.937 36.4933 110.604 36.216 109.937 36.216H109.169V37.968H109.953Z" fill="#206675"/>
<path fill-rule="evenodd" clip-rule="evenodd" d="M136 36.5H115V36H136V36.5Z" fill="#206675"/>
<defs>
<linearGradient id="paint0_linear" x1="34.0782" y1="8.04002" x2="27.8935" y2="33.8618" gradientUnits="userSpaceOnUse">
<stop stop-color="#0E849D"/>
<stop offset="0.40625" stop-color="#3FB1C2"/>
<stop offset="0.84375" stop-color="#3FB1C2"/>
</linearGradient>
<linearGradient id="paint1_linear" x1="33.3862" y1="33.5822" x2="20.4254" y2="14.5295" gradientUnits="userSpaceOnUse">
<stop stop-color="#0E849D"/>
<stop offset="0.650105" stop-color="#3FB1C2"/>
<stop offset="1" stop-color="#44CEE3"/>
</linearGradient>
<linearGradient id="paint2_linear" x1="24.0366" y1="42.7861" x2="42.2392" y2="17.6664" gradientUnits="userSpaceOnUse">
<stop stop-color="#03758E"/>
<stop offset="0.409417" stop-color="#3FB1C2"/>
<stop offset="1" stop-color="#7BE6F7"/>
</linearGradient>
<linearGradient id="paint3_linear" x1="22.1668" y1="43.4873" x2="4.39894" y2="17.6466" gradientUnits="userSpaceOnUse">
<stop offset="0.0347304" stop-color="#03758E"/>
<stop offset="0.401042" stop-color="#3FB1C2"/>
<stop offset="0.86701" stop-color="#8EE2EF"/>
</linearGradient>
</defs>
</svg>
