<svg width="18" height="18" viewBox="0 0 18 18" fill="none" xmlns="http://www.w3.org/2000/svg">
<path d="M8.99986 1C7.44246 1.0013 5.94886 1.61884 4.84527 2.71775C3.74168 3.81665 3.11779 5.30762 3.10986 6.865C3.10986 9.2 4.41986 11.155 5.37986 12.58L5.55486 12.84C6.51 14.2243 7.53465 15.5594 8.62486 16.84L9.00486 17.285L9.38486 16.84C10.4749 15.5592 11.4996 14.2242 12.4549 12.84L12.6299 12.575C13.5849 11.15 14.8949 9.2 14.8949 6.865C14.8869 5.30675 14.2624 3.81503 13.1577 2.71599C12.053 1.61694 10.5581 0.99998 8.99986 1ZM8.99986 9.5C8.35114 9.5 7.71699 9.30763 7.17759 8.94722C6.6382 8.58681 6.21779 8.07454 5.96954 7.4752C5.72128 6.87586 5.65633 6.21636 5.78289 5.5801C5.90945 4.94385 6.22184 4.35941 6.68055 3.90069C7.13927 3.44197 7.72371 3.12958 8.35997 3.00302C8.99622 2.87646 9.65572 2.94142 10.2551 3.18968C10.8544 3.43793 11.3667 3.85834 11.7271 4.39773C12.0875 4.93712 12.2799 5.57128 12.2799 6.22C12.2799 7.08991 11.9343 7.92419 11.3192 8.53931C10.7041 9.15443 9.86977 9.5 8.99986 9.5Z" fill="url(#paint0_linear)"/>
<path d="M8.99977 8.08498C10.0298 8.08498 10.8648 7.24999 10.8648 6.21998C10.8648 5.18997 10.0298 4.35498 8.99977 4.35498C7.96975 4.35498 7.13477 5.18997 7.13477 6.21998C7.13477 7.24999 7.96975 8.08498 8.99977 8.08498Z" fill="url(#paint1_linear)"/>
<defs>
<linearGradient id="paint0_linear" x1="9.00236" y1="1" x2="9.00236" y2="17.285" gradientUnits="userSpaceOnUse">
<stop stop-color="#FFC634"/>
<stop offset="1" stop-color="#F7311D"/>
</linearGradient>
<linearGradient id="paint1_linear" x1="8.99977" y1="4.35498" x2="8.99976" y2="13.5" gradientUnits="userSpaceOnUse">
<stop offset="0.442708" stop-color="#FFC634"/>
<stop offset="1" stop-color="#F7311D"/>
</linearGradient>
</defs>
</svg>
